<?xml version="1.0" encoding="UTF-8"?>
<svg width="18px" height="18px" viewBox="0 0 18 18" version="1.1" xmlns="http://www.w3.org/2000/svg" xmlns:xlink="http://www.w3.org/1999/xlink">
    <g  stroke="none" stroke-width="1" fill="none" fill-rule="evenodd">
        <g id="w3-5" transform="translate(-1214.000000, -221.000000)">
            <g  transform="translate(1000.000000, 179.000000)">
                <g  transform="translate(15.000000, 6.000000)">
                    <g  transform="translate(89.000000, 25.000000)">
                        <g  transform="translate(110.000000, 11.000000)">
                            <rect  x="0" y="0" width="17.7272727" height="17.7272727"></rect>
                            <g  transform="translate(2.500000, 2.500000)" fill="#FFFFFF" fill-rule="nonzero">
                                <path d="M3.25000327,2.84375368 C3.58643058,2.84375368 3.85937316,2.57079748 3.85937316,2.23438257 L3.85937316,0.609371112 C3.85937316,0.272943119 3.58641752,0 3.25000328,0 C2.91357596,0 2.6406203,0.272943119 2.6406203,0.609371112 L2.6406203,2.23438255 C2.64063338,2.57079748 2.91358902,2.84375368 3.25000327,2.84375368 Z M12.5357007,1.85714846 L11.1428553,1.85714846 L11.1718772,2.23438257 C11.1718772,3.01967768 10.5353033,3.65625286 9.75000981,3.65625286 C8.96469011,3.65625286 8.32812929,3.01967768 8.32812929,2.23438257 L8.35713818,1.85714846 L4.64286182,1.85714846 L4.67188379,2.23438257 C4.67188379,3.01967768 4.03530989,3.65625286 3.25002943,3.65625286 C2.46472282,3.65625286 1.82814891,3.01967768 1.82814891,2.23438257 L1.85717087,1.85714846 L0.464286184,1.85714846 C0.127845781,1.85714846 0,1.9849945 0,2.32143558 L0,12.3906158 C0,12.7270438 0.272955645,13 0.609369886,13 L12.390617,13 C12.7270574,13 13,12.7270438 13,12.3906158 L13,2.32143558 C13,1.98500758 12.8721411,1.85714846 12.5357007,1.85714846 Z M11.6071284,11.6071452 L1.39285855,11.6071452 L1.39285855,5.10714519 L11.6071284,5.10714519 L11.6071284,11.6071452 L11.6071284,11.6071452 Z M9.75000981,2.84375368 C10.0864371,2.84375368 10.3593797,2.57079748 10.3593797,2.23438257 L10.3593797,0.609371112 C10.3593797,0.272943119 10.0864371,0 9.75000981,0 C9.41356941,0 9.14062684,0.272956194 9.14062684,0.609371112 L9.14062684,2.23438255 C9.14062684,2.57079748 9.41356941,2.84375368 9.75000981,2.84375368 Z M3.71428945,7.89288097 C4.22707201,7.89288097 4.64284873,7.47664565 4.64284873,6.96429366 C4.64284873,6.45103922 4.22707201,6.03571943 3.71428945,6.03571943 C3.20149381,6.03571943 2.78571709,6.45103922 2.78571709,6.96429366 C2.78571709,7.47664565 3.20148072,7.89288097 3.71428945,7.89288097 Z M6.50000654,7.89288097 C7.01278911,7.89288097 7.42856583,7.47664565 7.42856583,6.96429366 C7.42856583,6.45103922 7.01278911,6.03571943 6.50000654,6.03571943 C5.9872109,6.03571943 5.57143419,6.45103922 5.57143419,6.96429366 C5.57143419,7.47664565 5.98719782,7.89288097 6.50000654,7.89288097 Z M9.28571055,7.89288097 C9.79850619,7.89288097 10.2142829,7.47664565 10.2142829,6.96429366 C10.2142829,6.45103922 9.79850619,6.03571943 9.28571055,6.03571943 C8.77290182,6.03571943 8.35713819,6.45103922 8.35713819,6.96429366 C8.35713819,7.47664565 8.77290182,7.89288097 9.28571055,7.89288097 Z M3.71428945,10.2142904 C4.22707201,10.2142904 4.64284873,9.79806816 4.64284873,9.28572924 C4.64284873,8.77246173 4.22707201,8.35714193 3.71428945,8.35714193 C3.20149381,8.35714193 2.78571709,8.77246171 2.78571709,9.28572924 C2.78571709,9.79806814 3.20148072,10.2142904 3.71428945,10.2142904 Z M6.50000654,10.2142904 C7.01278911,10.2142904 7.42856583,9.79806816 7.42856583,9.28572924 C7.42856583,8.77246173 7.01278911,8.35714193 6.50000654,8.35714193 C5.9872109,8.35714193 5.57143419,8.77246171 5.57143419,9.28572924 C5.57143419,9.79806814 5.98719782,10.2142904 6.50000654,10.2142904 Z M9.28571055,10.2142904 C9.79850619,10.2142904 10.2142829,9.79806816 10.2142829,9.28572924 C10.2142829,8.77246173 9.79850619,8.35714193 9.28571055,8.35714193 C8.77290182,8.35714193 8.35713819,8.77246171 8.35713819,9.28572924 C8.35713819,9.79806814 8.77290182,10.2142904 9.28571055,10.2142904 Z" ></path>
                            </g>
                        </g>
                    </g>
                </g>
            </g>
        </g>
    </g>
</svg>