<?xml version="1.0" encoding="UTF-8"?>
<svg width="20px" height="20px" viewBox="0 0 20 20" version="1.1" xmlns="http://www.w3.org/2000/svg" xmlns:xlink="http://www.w3.org/1999/xlink">
    <title></title>
    <g id="" stroke="none" stroke-width="1" fill="none" fill-rule="evenodd">
        <g id="" transform="translate(-116.000000, -139.000000)">
            <g id="" transform="translate(40.000000, 100.000000)">
                <g id="" transform="translate(76.000000, 39.000000)">
                    <rect id="" x="0" y="0" width="20" height="20"></rect>
                    <g id="" transform="translate(3.000000, 3.000000)" fill="#60ff98" fill-rule="nonzero">
                        <path d="M9.6092035,0.0994921525 L9.6867575,0.16446662 L13.8198025,4.30868677 C14.0142003,4.50359457 14.0358,4.80617445 13.8846018,5.02500938 L13.8198025,5.10277307 L6.066,12.876 L13.86,12.8769717 C13.9373199,12.8769717 14,12.9398213 14,13.0173502 L14,13.8596215 C14,13.9371504 13.9373199,14 13.86,14 L0.14,14 C0.062680135,14 0,13.9371504 0,13.8596215 L0,13.0173502 C0,12.9398213 0.062680135,12.8769717 0.14,12.8769717 L3.363,12.876 L0.1859725,9.69094035 C-0.00840972222,9.49601695 -0.0300077469,9.19344921 0.121178426,8.97460484 L0.1859725,8.8968365 L8.8948125,0.16446662 C9.08919472,-0.0304567814 9.39095867,-0.052114937 9.6092035,0.0994921525 Z M5.832,4.822 L1.373925,9.29387965 L4.71499,12.643996 L9.174,8.172 L5.832,4.822 Z" id=""></path>
                    </g>
                </g>
            </g>
        </g>
    </g>
</svg>