<?xml version="1.0" encoding="UTF-8"?>
<svg width="30px" height="30px" viewBox="0 0 30 30" version="1.1" xmlns="http://www.w3.org/2000/svg" xmlns:xlink="http://www.w3.org/1999/xlink">
    <g id="3" stroke="none" stroke-width="1" fill="none" fill-rule="evenodd">
        <g id="w3" transform="translate(-1216.000000, -419.000000)">
            <g  transform="translate(1216.000000, 419.000000)">
                <rect x="0" y="0" width="30" height="30"></rect>
                <g transform="translate(5.000000, 5.000000)" fill="#FFFFFF" fill-rule="nonzero">
                    <path d="M0,2.1 L0,21 L13.65,21 L13.65,2.1 L10.5,0 L0,2.1 Z M7.875,18.69 L1.575,18.69 L1.575,16.8 L7.875,16.695 L7.875,18.69 Z M7.875,14.49 L1.575,14.595 L1.575,12.705 L7.875,12.285 L7.875,14.49 Z M7.875,9.975 L1.575,10.395 L1.575,8.505 L7.875,7.77 L7.875,9.975 Z M7.875,5.355 L1.575,6.195 L1.575,4.2 L7.875,2.94 L7.875,5.355 Z M18.9,18.9 L18.9,2.1 L15.75,0 L14.175,0 L15.75,1.05 L15.75,21 L21,21 L21,18.9 L18.9,18.9 Z"></path>
                </g>
            </g>
        </g>
    </g>
</svg>