<?xml version="1.0" encoding="UTF-8"?>
<svg width="52px" height="40px" viewBox="0 0 52 40" version="1.1" xmlns="http://www.w3.org/2000/svg" xmlns:xlink="http://www.w3.org/1999/xlink">
    <g  stroke="none" stroke-width="1" fill="none" fill-rule="evenodd">
        <g  transform="translate(-616.000000, -294.000000)">
            <g transform="translate(420.000000, 232.000000)">
                <g  transform="translate(120.500000, 62.000000)">
                    <g transform="translate(75.500000, 0.000000)">
                        <path d="M16,36 L16,40 L12,40 L12,36 L16,36 Z M12,32 L12,36 L8,36 L8,32 L12,32 Z M20,32 L20,36 L16,36 L16,32 L20,32 Z M8,28 L8,32 L4,32 L4,28 L8,28 Z M24,28 L24,32 L20,32 L20,28 L24,28 Z M4,24 L4,28 L0,28 L0,24 L4,24 Z M28,24 L28,28 L24,28 L24,24 L28,24 Z M8,20 L8,24 L4,24 L4,20 L8,20 Z M24,20 L24,24 L20,24 L20,20 L24,20 Z M12,16 L12,20 L8,20 L8,16 L12,16 Z M28,16 L28,20 L24,20 L24,16 L28,16 Z M16,12 L16,16 L12,16 L12,12 L16,12 Z M24,12 L24,16 L20,16 L20,12 L24,12 Z M20,8 L20,12 L16,12 L16,8 L20,8 Z"  fill="#63F7DE"></path>
                        <path d="M40,28 L40,32 L36,32 L36,28 L40,28 Z M36,24 L36,28 L32,28 L32,24 L36,24 Z M44,24 L44,28 L40,28 L40,24 L44,24 Z M32,20 L32,24 L28,24 L28,20 L32,20 Z M48,20 L48,24 L44,24 L44,20 L48,20 Z M28,16 L28,20 L24,20 L24,16 L28,16 Z M52,16 L52,20 L48,20 L48,16 L52,16 Z M32,12 L32,16 L28,16 L28,12 L32,12 Z M48,12 L48,16 L44,16 L44,12 L48,12 Z M36,8 L36,12 L32,12 L32,8 L36,8 Z M52,8 L52,12 L48,12 L48,8 L52,8 Z M40,4 L40,8 L36,8 L36,4 L40,4 Z M48,4 L48,8 L44,8 L44,4 L48,4 Z M44,0 L44,4 L40,4 L40,0 L44,0 Z" fill="#C36EFF" transform="translate(38.000000, 16.000000) rotate(-180.000000) translate(-38.000000, -16.000000) "></path>
                    </g>
                </g>
            </g>
        </g>
    </g>
</svg>