<?xml version="1.0" encoding="UTF-8"?>
<svg width="28px" height="28px" viewBox="0 0 28 28" version="1.1" xmlns="http://www.w3.org/2000/svg" xmlns:xlink="http://www.w3.org/1999/xlink">
    <g id="" stroke="none" stroke-width="1" fill="none" fill-rule="evenodd">
        <g id="" transform="translate(-1096.000000, -537.000000)">
            <g id="" transform="translate(960.000000, 210.000000)">
                <g id="" transform="translate(136.000000, 327.000000)">
                    <rect id="" x="0" y="0" width="28" height="28"></rect>
                    <g id="" transform="translate(6.000000, 5.000000)" fill="#A3A3A3" fill-rule="nonzero">
                        <path d="M6.68354166,0 C9.2560976,0 11.3417613,2.12278744 11.3417613,4.74113352 C11.3417613,6.42156487 10.4830402,7.89749592 9.18764826,8.73976974 C9.63065543,8.92190545 10.0523171,9.15167157 10.4456552,9.42463124 C10.0458045,9.62740353 9.6817456,9.88848836 9.36327775,10.1969275 C8.55163655,9.72967178 7.62919323,9.48072776 6.68354166,9.48228637 C3.66339729,9.48228637 1.21518939,11.9740517 1.21518939,15.0479724 C1.21518939,15.1753648 1.21923369,15.3019262 1.22734129,15.4280817 C1.24835286,15.6520932 1.14814997,15.8700403 0.965706695,15.9971523 C0.783263422,16.1242643 0.547379941,16.1404754 0.349803531,16.0394802 C0.15222712,15.9384851 0.0241468437,15.7362267 0.0153797408,15.5113737 C0.00514915378,15.3571194 0,15.2025585 0,15.0479531 C0,12.1921571 1.72879678,9.74737149 4.17943506,8.73895808 C2.83682587,7.8690687 2.02425964,6.36102472 2.02532198,4.74113352 C2.02532198,2.12278744 4.11098572,0 6.68354166,0 Z M6.68354166,1.23681912 C5.45346201,1.23681912 4.31682152,1.90473948 3.70178169,2.98898113 C3.08674185,4.07322278 3.08674185,5.40906359 3.70178169,6.49330524 C4.31682152,7.57754689 5.45346201,8.24546725 6.68354166,8.24546725 C8.58507999,8.24546725 10.1265814,6.67652789 10.1265814,4.74114318 C10.1265814,2.80575847 8.58507999,1.23681912 6.68354166,1.23681912 Z" id="形状结合"></path>
                        <path d="M14.9584736,10.8902256 C15.6253481,11.5614189 16,12.4717935 16,13.4210526 C16,14.3703118 15.6253481,15.2806864 14.9584736,15.9518797 C13.5699054,17.3494407 11.318718,17.3493636 9.93024424,15.9517075 C8.54177044,14.5540515 8.54177044,12.2880538 9.93024424,10.8903977 C11.318718,9.49274168 13.5699054,9.4926646 14.9584736,10.8902256 Z M14.4479342,11.396391 C13.3370796,10.2783422 11.5361298,10.2784039 10.4253507,11.3965287 C9.31457167,12.5146535 9.31457167,14.3274517 10.4253507,15.4455766 C11.5361298,16.5637014 13.3370796,16.5637631 14.4479342,15.4457143 C14.9814338,14.9087596 15.2811553,14.1804599 15.2811553,13.4210526 C15.2811553,12.6616453 14.9814338,11.9333456 14.4479342,11.396391 Z M10.9486313,14.9090891 C10.8095124,14.7690549 10.8095124,14.5429838 10.9486313,14.4029496 L13.3923743,11.9431294 C13.5303198,11.8042763 13.7547094,11.8035406 13.8935625,11.9414861 C13.894112,11.9420321 13.8946598,11.9425798 13.8952057,11.9431294 C14.0343247,12.0831636 14.0343247,12.3092348 13.8952057,12.449269 L11.4514628,14.9090891 C11.3135173,15.0479422 11.0891277,15.0486779 10.9502746,14.9107324 C10.949725,14.9101864 10.9491773,14.9096387 10.9486313,14.9090891 Z M10.9486313,11.9431294 C11.0865769,11.8042763 11.3109665,11.8035406 11.4498196,11.9414861 C11.4503691,11.9420321 11.4509169,11.9425798 11.4514628,11.9431294 L13.8952057,14.4029496 C14.0343247,14.5429838 14.0343247,14.7690549 13.8952057,14.9090891 C13.7572602,15.0479422 13.5328706,15.0486779 13.3940175,14.9107324 C13.393468,14.9101864 13.3929202,14.9096387 13.3923743,14.9090891 L10.9486313,12.449269 C10.8095124,12.3092348 10.8095124,12.0831636 10.9486313,11.9431294 Z" id=""></path>
                    </g>
                </g>
            </g>
        </g>
    </g>
</svg>