<?xml version="1.0" encoding="UTF-8"?>
<svg width="18px" height="18px" viewBox="0 0 18 18" version="1.1" xmlns="http://www.w3.org/2000/svg" xmlns:xlink="http://www.w3.org/1999/xlink">
    <g  stroke="none" stroke-width="1" fill="none" fill-rule="evenodd">
        <g transform="translate(-968.000000, -712.000000)">
            <g  transform="translate(940.000000, 179.000000)">
                <g  transform="translate(28.000000, 533.000000)">
                    <rect  x="0" y="0" width="18" height="18"></rect>
                    <g  transform="translate(3.000000, 3.000000)" fill="#666666" fill-rule="nonzero">
                        <path d="M6,0 C2.69136353,0 0,2.69270252 0,6 C0,9.30863647 2.69136353,12 6,12 C9.30863647,12 12,9.30863647 12,6 C12,2.69270252 9.30729748,0 6,0 Z M6,10.7185896 C3.39834858,10.7185896 1.2814104,8.60165142 1.2814104,6 C1.2814104,3.39834858 3.39834858,1.2814104 6,1.2814104 C8.60165142,1.2814104 10.7185896,3.39834858 10.7185896,6 C10.7185896,8.60165142 8.60165142,10.7185896 6,10.7185896 Z M4.56460611,5.46306628 C5.05601428,5.46306628 5.45369337,5.06538719 5.45369337,4.57397902 C5.45369337,4.08257085 5.05601428,3.68489177 4.56460611,3.68489177 C4.07319795,3.68489177 3.67551886,4.08257085 3.67551886,4.57397902 C3.67685784,5.06538719 4.07453693,5.46306628 4.56460611,5.46306628 Z M7.4340549,5.46306628 C7.92546307,5.46306628 8.32314216,5.06538719 8.32314216,4.57397902 C8.32314216,4.08257085 7.92546307,3.68489177 7.4340549,3.68489177 C6.94264673,3.68489177 6.54496764,4.08257085 6.54496764,4.57397902 C6.54630663,5.06538719 6.94398572,5.46306628 7.4340549,5.46306628 Z M8.5119393,6.51283196 C8.17183664,6.407052 7.81566615,6.59852711 7.71122517,6.9359518 C7.47824146,7.69114037 6.78866324,8.19861638 5.99732203,8.19861638 C5.21133676,8.19861638 4.52443651,7.69515733 4.28743584,6.94666369 C4.18165588,6.60923901 3.81879045,6.42178085 3.48404374,6.53023879 C3.14661906,6.63735773 2.96049989,6.99754519 3.06627985,7.33496987 C3.47333185,8.61905825 4.65164026,9.48002678 5.99732203,9.48002678 C7.35505468,9.48002678 8.53604106,8.60968534 8.93505914,7.31354608 C9.03950011,6.9761214 8.84936398,6.61727293 8.5119393,6.51283196 Z" ></path>
                    </g>
                </g>
            </g>
        </g>
    </g>
</svg>