<?xml version="1.0" encoding="UTF-8"?>
<svg width="12px" height="12px" viewBox="0 0 12 12" version="1.1" xmlns="http://www.w3.org/2000/svg" xmlns:xlink="http://www.w3.org/1999/xlink">
    <title>everyone</title>
    <g  stroke="none" stroke-width="1" fill="none" fill-rule="evenodd">
        <g transform="translate(-974.000000, -596.000000)">
            <g  transform="translate(941.000000, 179.000000)">
                <g  transform="translate(15.000000, 377.000000)">
                    <g  transform="translate(0.000000, 34.000000)">
                        <g  transform="translate(16.000000, 4.000000)">
                            <g id="everyone" transform="translate(2.000000, 2.000000)">
                                <rect  x="0" y="0" width="12" height="12"></rect>
                                <path d="M6.0008965,2 C7.17816642,2.00128523 8.13211293,2.96181708 8.13339105,4.14562789 C8.13339105,4.84151984 7.79492014,5.49511614 7.22801332,5.89447119 C8.59177339,6.40937982 9.49587299,7.71914287 9.49726731,9.1841847 C9.49726731,9.35745665 9.35678968,9.49871477 9.18435891,9.49871477 L9.18435891,9.49871477 L2.81499403,9.5 C2.64256326,9.5 2.50208563,9.35885872 2.50208563,9.18546993 C2.50208563,7.67930084 3.44824719,6.39524232 4.77377969,5.89447119 C4.22720668,5.50680002 3.86712383,4.8685096 3.86712383,4.14562789 C3.86840195,2.96181708 4.82362659,2.00128523 6.0008965,2 Z M8.32638802,2.84614666 C8.76048597,2.8101603 9.19202767,2.95025004 9.52282983,3.23521989 C9.85607204,3.51773613 10.0616179,3.92351732 10.0948491,4.36131233 C10.1408617,4.92634481 9.89429962,5.47455251 9.44102978,5.8123335 C9.77171575,5.96130299 10.0692866,6.17698743 10.3131762,6.44536617 C10.7867799,6.96541571 11.0332258,7.6535963 10.9963925,8.35860167 C10.9888399,8.53199047 10.8419717,8.66553722 10.6695409,8.65782586 C10.4971101,8.6501145 10.3643013,8.50254709 10.37197,8.32915829 C10.3975325,7.78854512 10.2123205,7.26978081 9.84968141,6.87042576 C9.48704231,6.46978548 8.99159433,6.23482264 8.4539682,6.2091181 C8.37100623,6.20526242 8.29304056,6.16799084 8.23691923,6.10641679 C8.18195983,6.0447259 8.15256294,5.96387344 8.15639731,5.88045053 C8.16150982,5.75461513 8.23947548,5.64408562 8.3543906,5.59793429 C8.40374341,5.54943628 8.46820864,5.51952097 8.53693018,5.51322615 C8.80602653,5.4915008 9.05549388,5.36308975 9.23037144,5.15628359 C9.40652039,4.94819367 9.49215481,4.68378745 9.47042667,4.41155302 C9.42453034,3.84909099 8.93547299,3.43045754 8.37611873,3.47287003 C8.20891666,3.48046455 8.06588278,3.35217554 8.0518234,3.18392765 C8.03776401,3.01567977 8.15906976,2.86671029 8.32638802,2.84614666 Z M3.51440222,2.84224146 L3.67691549,2.84754872 C3.75859934,2.85397486 3.836565,2.89241482 3.89013009,2.95667617 C3.94369517,3.02082068 3.97053581,3.1030752 3.96286706,3.18649811 C3.94752955,3.3598869 3.79682692,3.48700752 3.62579047,3.47544048 C3.35761647,3.45487685 3.09327684,3.5384166 2.88645287,3.71554424 C2.68002904,3.89094222 2.55178749,4.1419526 2.5302044,4.41283825 C2.50847626,4.68250222 2.59399449,4.95088096 2.77025963,5.15756882 C2.9449541,5.36529765 3.19521444,5.49387988 3.46497902,5.51451138 C3.53260349,5.52222274 3.59650977,5.55166612 3.64624048,5.59921952 C3.76115559,5.64548769 3.83900506,5.75590036 3.84411757,5.88045053 C3.84795194,5.96387344 3.81855505,6.0447259 3.76243372,6.10641679 C3.70619619,6.16799084 3.62834672,6.20397719 3.54422281,6.20783287 C3.01022411,6.2321194 2.50809132,6.47025473 2.14978773,6.86914053 C1.78970487,7.26721036 1.60065847,7.7924008 1.62749911,8.32915829 C1.63261161,8.4125812 1.60321472,8.49471889 1.54709339,8.55640978 C1.49097205,8.61798383 1.41300639,8.65397018 1.33004441,8.65782586 L1.33004441,8.65782586 L1.31598503,8.65782586 C1.14866676,8.65782586 1.01074539,8.52556433 1.00307663,8.35731645 C0.950789675,7.26849558 1.56882152,6.25783988 2.56227373,5.81361873 C2.1090039,5.47583773 1.86255804,4.92763004 1.90845437,4.36259756 C1.94168129,3.92541246 2.14770166,3.51983529 2.48047369,3.23650512 C2.81115965,2.95153526 3.24270135,2.81156237 3.67691549,2.84754872 Z" fill="#FFFFFF" fill-rule="nonzero"></path>
                            </g>
                        </g>
                    </g>
                </g>
            </g>
        </g>
    </g>
</svg>