<?xml version="1.0" encoding="UTF-8"?>
<svg width="18px" height="18px" viewBox="0 0 18 18" version="1.1" xmlns="http://www.w3.org/2000/svg" xmlns:xlink="http://www.w3.org/1999/xlink">
    <g  stroke="none" stroke-width="1" fill="none" fill-rule="evenodd">
        <g id="w3-5" transform="translate(-1147.000000, -221.000000)">
            <g  transform="translate(1000.000000, 179.000000)">
                <g  transform="translate(15.000000, 6.000000)">
                    <g  transform="translate(89.000000, 25.000000)">
                        <g  transform="translate(39.000000, 7.000000)">
                            <g  transform="translate(4.136364, 4.136364)">
                                <rect x="0" y="0" width="17.7272727" height="17.7272727"></rect>
                                <path d="M7.17567568,2.99935658 C9.07596944,2.99935658 10.6164619,4.560228 10.6164619,6.48566046 C10.6164619,7.78087611 9.91937463,8.91112446 8.88459974,9.51225139 C10.8639373,10.1762214 12.3378846,11.9655795 12.5697789,14.1319285 C12.5742015,14.1573214 12.5756757,14.1842081 12.5771499,14.2110948 C12.5771499,14.2170696 12.5786241,14.2215507 12.5786241,14.2290192 C12.5786241,14.4992302 12.3839853,14.7234649 12.1290442,14.7656098 L12.0420147,14.7727273 L2.30933661,14.7727273 C2.04265356,14.7727273 1.82134644,14.5755136 1.77975184,14.3172 L1.77272727,14.2290192 L1.77272727,14.2125885 C1.77420147,14.2081074 1.77420147,14.20512 1.77420147,14.2021326 C1.77567568,14.1812207 1.77714988,14.1618026 1.78009828,14.1423844 C2.00861678,11.9703602 3.48395637,10.1765907 5.46707847,9.51061882 C4.43197672,8.91112446 3.73488943,7.78087611 3.73488943,6.48566046 C3.73488943,4.560228 5.27538191,2.99935658 7.17567568,2.99935658 Z M10.7515845,4.16730067 C10.6829869,4.15517498 10.6159926,4.13092361 10.5538083,4.09454654 C10.3672555,3.98541535 10.2523342,3.78373258 10.2523342,3.5654702 C10.2523342,3.34720781 10.3672555,3.14552505 10.5538083,3.03639385 C10.6470848,2.98182825 10.7511837,2.95454545 10.8552826,2.95454545 C12.7230958,3.02624325 14.2149877,4.58268225 14.2149877,6.49163528 C14.2149877,7.61639399 13.6960688,8.62016271 12.8882064,9.26843001 C14.6300573,10.0753618 15.8606414,11.8200116 15.9494065,13.8648193 L15.9545455,14.1020544 L15.9545455,14.114004 C15.9545455,14.451581 15.6847666,14.7249288 15.3515971,14.7249288 C15.0517445,14.7249288 14.8032383,14.5035171 14.7565356,14.2131411 L14.7486486,14.114004 L14.7486486,14.1020544 C14.747222,11.9988236 13.2491971,10.2676974 11.2379356,10.040423 L11.0351351,10.0227503 C10.9691599,10.0056208 10.909159,9.9826748 10.8530712,9.94986411 C10.6665184,9.84073292 10.5515971,9.63905015 10.5515971,9.42078777 C10.5515971,9.20252538 10.6665184,9.00084262 10.8530712,8.89171142 C10.9273302,8.84827085 11.0084484,8.82212216 11.090965,8.81326534 C12.1914263,8.65492226 12.9958231,7.65245804 12.9958231,6.49163528 C12.9958231,5.31862346 12.1298955,4.33557457 11.0095732,4.1908701 L10.8552826,4.17639491 Z" fill="#FFFFFF" fill-rule="nonzero"></path>
                            </g>
                        </g>
                    </g>
                </g>
            </g>
        </g>
    </g>
</svg>