<?xml version="1.0" encoding="UTF-8"?>
<svg width="20px" height="20px" viewBox="0 0 20 20" version="1.1" xmlns="http://www.w3.org/2000/svg" xmlns:xlink="http://www.w3.org/1999/xlink">
    <g  stroke="none" stroke-width="1" fill="none" fill-rule="evenodd">
        <g transform="translate(-109.000000, -61.000000)">
            <g  transform="translate(102.000000, 54.000000)">
                <g  transform="translate(7.000000, 7.000000)">
                    <rect  x="0" y="0" width="20" height="20"></rect>
                    <g  transform="translate(3.000000, 3.000000)" fill="#FFFFFF" fill-rule="nonzero">
                        <path d="M7,0 C3.1375,0 0,3.1375 0,7 C0,10.8625 3.1375,14 7,14 C10.8625,14 14,10.8625 14,7 C14,3.1375 10.8625,0 7,0 Z M7.5,11 L6.5,11 L6.5,10 L7.5,10 L7.5,11 Z M7.675,7.825 L7.5875,7.9 C7.5375,7.9375 7.5,8.025 7.5,8.1 L7.5,9.0125 L6.5,9.0125 L6.5,8.1 C6.5,7.7125 6.675,7.35 6.9625,7.1125 L7.05,7.0375 C7.925,6.3375 8.35,5.975 8.35,5.35 C8.35,4.6 7.75,4 7,4 C6.225,4 5.65,4.575 5.65,5.35 L4.65,5.35 C4.65,4.0375 5.6875,3 7,3 C8.3,3 9.35,4.05 9.35,5.35 C9.35,6.4875 8.575,7.1125 7.675,7.825 L7.675,7.825 Z"></path>
                    </g>
                </g>
            </g>
        </g>
    </g>
</svg>