<?xml version="1.0" encoding="UTF-8"?>
<svg width="30px" height="30px" viewBox="0 0 30 30" version="1.1" xmlns="http://www.w3.org/2000/svg" xmlns:xlink="http://www.w3.org/1999/xlink">
    <g stroke="none" stroke-width="1" fill="none" fill-rule="evenodd">
        <g  transform="translate(-1215.000000, -372.000000)">
            <g  transform="translate(1200.000000, 179.000000)">
                <g  transform="translate(15.000000, 193.000000)">
                    <path d="M22.073913,5 C23.082433,5 23.9,5.81756698 23.9,6.82608696 L23.9,6.82608696 L23.9,13.4 L24.173913,13.4 C25.182433,13.4 26,14.217567 26,15.226087 L26,15.226087 L26,24.173913 C26,25.182433 25.182433,26 24.173913,26 L24.173913,26 L6.82608696,26 C5.81756698,26 5,25.182433 5,24.173913 L5,24.173913 L5,15.226087 C5,14.217567 5.81756698,13.4 6.82608696,13.4 L6.82608696,13.4 L7.1,13.4 L7.1,6.82608696 C7.1,5.81756698 7.91756698,5 8.92608696,5 L8.92608696,5 Z M20.8869565,7.1 L10.1130435,7.1 C9.60878349,7.1 9.2,7.50878349 9.2,8.01304348 L9.2,8.01304348 L9.2,13.4 L14.3309676,17.6758063 C15.0081646,18.2401371 15.9918354,18.2401371 16.6690324,17.6758063 L16.6690324,17.6758063 L21.8,13.4 L21.8,8.01304348 C21.8,7.50878349 21.3912165,7.1 20.8869565,7.1 L20.8869565,7.1 Z M18.65,12.35 C19.229899,12.35 19.7,12.820101 19.7,13.4 C19.7,13.979899 19.229899,14.45 18.65,14.45 L12.35,14.45 C11.770101,14.45 11.3,13.979899 11.3,13.4 C11.3,12.820101 11.770101,12.35 12.35,12.35 L18.65,12.35 Z M18.65,8.69782609 C19.229899,8.69782609 19.7,9.1679271 19.7,9.74782609 C19.7,10.3277251 19.229899,10.7978261 18.65,10.7978261 L12.35,10.7978261 C11.770101,10.7978261 11.3,10.3277251 11.3,9.74782609 C11.3,9.1679271 11.770101,8.69782609 12.35,8.69782609 L18.65,8.69782609 Z"  fill="#FFFFFF" fill-rule="nonzero"></path>
                    <rect  x="0" y="0" width="30" height="30"></rect>
                </g>
            </g>
        </g>
    </g>
</svg>