<?xml version="1.0" encoding="UTF-8"?>
<svg width="28px" height="28px" viewBox="0 0 28 28" version="1.1" xmlns="http://www.w3.org/2000/svg" xmlns:xlink="http://www.w3.org/1999/xlink">
    <g  stroke="none" stroke-width="1" fill="none" fill-rule="evenodd">
        <g transform="translate(-1162.000000, -492.000000)">
            <g  transform="translate(960.000000, 210.000000)">
                <g  transform="translate(202.000000, 282.000000)">
                    <rect  x="0" y="0" width="28" height="28" rx="14"></rect>
                    <g id="2216360_google-map_location_map_navigation_position_icon" transform="translate(5.000000, 4.000000)" fill="#A3A3A3" fill-rule="nonzero">
                        <path d="M7.01788909,7.50695825 C7.30769231,7.50695825 7.56529517,7.76143141 7.56529517,8.04771372 C7.56529517,8.33399602 7.30769231,8.58846918 7.01788909,8.58846918 L7.01788909,8.58846918 L4.99105546,8.58846918 L14.8765653,12.7236581 L16.4221825,11.610338 L15.842576,8.58846918 L15.6171735,8.58846918 C15.3273703,8.58846918 15.0697674,8.33399602 15.0697674,8.04771372 C15.0697674,7.76143141 15.3273703,7.50695825 15.6171735,7.50695825 L15.6171735,7.50695825 L16.7763864,7.50695825 L18,13.8687873 C18,15.0457256 17.0339893,16 15.842576,16 L15.842576,16 L0,16 L1.28801431,7.50695825 Z M6.79427549,10.528827 L2.93023256,14.9502982 L11.7531306,14.9502982 L13.8461538,13.4552684 L6.79427549,10.528827 Z M2.22182469,8.58846918 L1.25581395,14.9502982 L1.51341682,14.9502982 L5.76386404,10.0516899 L2.22182469,8.58846918 Z M16.6797853,12.7554672 L13.6207513,14.9502982 L15.842576,14.9502982 C16.3899821,14.9502982 16.8729875,14.5049702 16.9051878,13.9324056 L16.9051878,13.9324056 L16.6797853,12.7554672 Z M11.2561618,0 C13.6389883,0 15.5710097,1.90854871 15.5710097,4.26242545 C15.5710097,6.52087475 11.7069668,10.528827 11.545965,10.6878728 L11.545965,10.6878728 L11.2561618,10.9741551 L10.9663586,10.6878728 C10.8053568,10.528827 6.94131383,6.52087475 6.94131383,4.26242545 C6.94131383,1.90854871 8.8733353,0 11.2561618,0 Z M11.2561618,2.76739563 C10.4833532,2.76739563 9.83934603,3.40357853 9.83934603,4.16699801 C9.83934603,4.9304175 10.4833532,5.5666004 11.2561618,5.5666004 C12.0289704,5.5666004 12.6729775,4.9304175 12.6729775,4.16699801 C12.6729775,3.40357853 12.0289704,2.76739563 11.2561618,2.76739563 Z" ></path>
                    </g>
                </g>
            </g>
        </g>
    </g>
</svg>