<?xml version="1.0" encoding="UTF-8"?>
<svg width="28px" height="28px" viewBox="0 0 28 28" version="1.1" xmlns="http://www.w3.org/2000/svg" xmlns:xlink="http://www.w3.org/1999/xlink">
    <g  stroke="none" stroke-width="1" fill="none" fill-rule="evenodd">
        <g  transform="translate(-1162.000000, -576.000000)">
            <g  transform="translate(960.000000, 210.000000)">
                <g  transform="translate(202.000000, 366.000000)">
                    <rect x="0" y="0" width="28" height="28" rx="14"></rect>
                    <g id="2216360_google-map_location_map_navigation_position_icon" transform="translate(5.000000, 4.000000)" fill="#50D0E5" fill-rule="nonzero">
                        <path d="M8.01788909,7.50695825 C8.30769231,7.50695825 8.56529517,7.76143141 8.56529517,8.04771372 C8.56529517,8.33399602 8.30769231,8.58846918 8.01788909,8.58846918 L8.01788909,8.58846918 L4.99105546,8.58846918 L14.8765653,12.7236581 L16.4221825,11.610338 L15.842576,8.58846918 L15.6171735,8.58846918 C15.3273703,8.58846918 15.0697674,8.33399602 15.0697674,8.04771372 C15.0697674,7.76143141 15.3273703,7.50695825 15.6171735,7.50695825 L15.6171735,7.50695825 L16.7763864,7.50695825 L18,13.8687873 C18,15.0457256 17.0339893,16 15.842576,16 L15.842576,16 L0,16 L1.28801431,7.50695825 Z M6.79427549,10.528827 L2.93023256,14.9502982 L11.7531306,14.9502982 L13.8461538,13.4552684 L6.79427549,10.528827 Z M2.22182469,8.58846918 L1.25581395,14.9502982 L1.51341682,14.9502982 L5.76386404,10.0516899 L2.22182469,8.58846918 Z M16.6797853,12.7554672 L13.6207513,14.9502982 L15.842576,14.9502982 C16.3899821,14.9502982 16.8729875,14.5049702 16.9051878,13.9324056 L16.9051878,13.9324056 L16.6797853,12.7554672 Z M11.9785331,0 C14.3613596,0 16.293381,1.90854871 16.293381,4.26242545 C16.293381,6.52087475 12.4293381,10.528827 12.2683363,10.6878728 L12.2683363,10.6878728 L11.9785331,10.9741551 L11.6887299,10.6878728 C11.5277281,10.528827 7.66368515,6.52087475 7.66368515,4.26242545 C7.66368515,1.90854871 9.59570662,0 11.9785331,0 Z M11.9785331,2.76739563 C11.2057245,2.76739563 10.5617174,3.40357853 10.5617174,4.16699801 C10.5617174,4.9304175 11.2057245,5.5666004 11.9785331,5.5666004 C12.7513417,5.5666004 13.3953488,4.9304175 13.3953488,4.16699801 C13.3953488,3.40357853 12.7513417,2.76739563 11.9785331,2.76739563 Z"></path>
                    </g>
                </g>
            </g>
        </g>
    </g>
</svg>