<?xml version="1.0" encoding="UTF-8"?>
<svg width="18px" height="18px" viewBox="0 0 18 18" version="1.1" xmlns="http://www.w3.org/2000/svg" xmlns:xlink="http://www.w3.org/1999/xlink">
    <g  stroke="none" stroke-width="1" fill="none" fill-rule="evenodd">
        <g id="w3-5" transform="translate(-1116.000000, -221.000000)">
            <g  transform="translate(1000.000000, 179.000000)">
                <g  transform="translate(15.000000, 6.000000)">
                    <g  transform="translate(89.000000, 25.000000)">
                        <g  transform="translate(8.000000, 7.000000)">
                            <g  transform="translate(4.000000, 4.000000)">
                                <rect  x="0" y="0" width="18" height="18"></rect>
                                <path d="M8.9957672,2.4 C5.01693123,2.4 1.8,5.17335131 1.8,8.58798806 C1.8,8.76288409 1.80846561,8.93778013 1.82539682,9.11267615 C1.99470898,10.8533081 3.0021164,12.3857304 4.50052909,13.4184498 L4.50052912,15.7420685 C4.50052912,16.1001889 4.89841272,16.3167269 5.20317461,16.1335025 L7.64973546,14.6760356 C8.0899471,14.7426626 8.53862435,14.7843045 8.9957672,14.7843045 C12.762963,14.7843045 15.8529101,12.2941182 16.1661376,9.12100456 C16.1830688,8.94610854 16.2,8.7712125 16.2,8.59631648 C16.1915344,5.17335132 12.9661376,2.4 8.9957672,2.4 Z M4.429418,7.09540969 C4.429418,6.78087977 4.69400757,6.52057915 5.01371997,6.52057915 L5.87363608,6.52057915 C6.19334848,6.52057915 6.45793806,6.78087977 6.45793806,7.09540969 C6.45793806,7.4099396 6.19334848,7.67024023 5.87363608,7.67024023 L5.01371997,7.67024023 C4.69400757,7.68108609 4.429418,7.42078547 4.429418,7.09540969 Z M12.0473928,10.3274757 L6.19334848,10.3274757 C5.87363608,10.3274757 5.6090465,10.0671751 5.6090465,9.75264517 C5.6090465,9.43811525 5.87363608,9.17781463 6.19334848,9.17781463 L12.0584173,9.17781463 C12.3781297,9.17781463 12.6427193,9.43811525 12.6427193,9.75264517 C12.6316947,10.0671751 12.3781297,10.3274757 12.0473928,10.3274757 Z M13.2270213,7.68108609 L8.08957375,7.68108609 C7.76986135,7.68108609 7.50527177,7.42078547 7.50527177,7.10625555 C7.50527177,6.79172564 7.76986135,6.53142501 8.08957375,6.53142501 L13.2159967,6.53142501 C13.5357091,6.53142501 13.8002987,6.79172564 13.8002987,7.10625555 C13.8113233,7.42078547 13.5467337,7.68108609 13.2270213,7.68108609 Z"  fill="#FFFFFF" fill-rule="nonzero"></path>
                            </g>
                        </g>
                    </g>
                </g>
            </g>
        </g>
    </g>
</svg>