<?xml version="1.0" encoding="UTF-8"?>
<svg width="20px" height="20px" viewBox="0 0 20 20" version="1.1" xmlns="http://www.w3.org/2000/svg" xmlns:xlink="http://www.w3.org/1999/xlink">
    <title></title>
    <g id="-3" stroke="none" stroke-width="1" fill="none" fill-rule="evenodd">
        <g id="w3-" transform="translate(-146.000000, -139.000000)">
            <g id="-" transform="translate(40.000000, 100.000000)">
                <g id="" transform="translate(106.000000, 39.000000)">
                    <rect id="" x="0" y="0" width="20" height="20"></rect>
                    <g id="" transform="translate(2.000000, 2.000000)" fill="#60ff98" fill-rule="nonzero">
                        <path d="M8.43116615,0.205262959 L10.0111133,1.78520542 C10.2573988,2.03149019 10.2820274,2.27777496 10.084999,2.52405973 L10.0111133,2.60615466 C9.73746276,2.8798044 9.4638122,2.8798044 9.19016164,2.60615466 L8.559,1.975 L8.55984298,3.89538704 C8.55984298,4.2436863 8.40310784,4.4352509 8.08963758,4.47008082 L7.97934248,4.47588581 C7.59234215,4.47588581 7.39884199,4.28238622 7.39884199,3.89538704 L7.398,2.017 L6.80994593,2.60612899 C6.56366043,2.85241376 6.31737493,2.87704224 6.07108943,2.68001442 L5.98899426,2.60612899 C5.7153437,2.33247924 5.7153437,2.0588295 5.98899426,1.78517976 L7.53416124,0.238597686 C7.54058417,0.23171749 7.54723573,0.225065942 7.55411595,0.218643041 L7.5689414,0.205237308 C7.71277481,0.0614043328 7.85660821,-0.00682862739 8.00044161,0.000538427441 C8.14416679,-0.00648594336 8.28766647,0.0617637028 8.43116615,0.205262959 Z M8.02070314,11.5242296 C8.40770347,11.5242296 8.60120364,11.7177292 8.60120364,12.1047284 L8.601,13.982 L9.19030584,13.393871 C9.43659134,13.1475862 9.68287684,13.1229578 9.92916235,13.3199856 L10.0112575,13.393871 C10.2849081,13.6675208 10.2849081,13.9411705 10.0112575,14.2148202 L8.46588438,15.7615178 C8.45946146,15.768398 8.45280989,15.7750495 8.44592967,15.7814724 L8.43131037,15.7947627 C8.28781069,15.9382619 8.14431101,16.0065116 8.00081132,15.9995116 C7.85636137,16.0067817 7.71252797,15.9385488 7.56869456,15.7947158 L5.98874742,14.2147733 C5.74246192,13.9684886 5.71783337,13.7222038 5.91486177,13.475919 L5.98874742,13.3938241 C6.26239798,13.1201744 6.53604854,13.1201744 6.80969909,13.3938241 L7.44,14.024 L7.44020265,12.1047284 C7.44020265,11.7564291 7.59693778,11.5648646 7.91040805,11.5300346 L8.02070314,11.5242296 Z M2.52409069,5.9151444 L2.60618586,5.98902983 C2.87983641,6.26267958 2.87983641,6.53632932 2.60618586,6.80997907 L1.975,7.44 L3.8952522,7.44014852 C4.2435525,7.44014852 4.43511766,7.59688319 4.46994769,7.91035252 L4.4757527,8.02064729 C4.4757527,8.40764647 4.28225253,8.60114606 3.8952522,8.60114606 L2.017,8.601 L2.60613673,9.19039385 C2.85242223,9.43667862 2.87705078,9.68296339 2.68002238,9.92924816 L2.60613673,10.0113431 C2.33248617,10.2849928 2.05883562,10.2849928 1.78518506,10.0113431 L0.238451982,8.4658272 C0.231571766,8.4594043 0.224920198,8.45275275 0.218497277,8.44587256 L0.205237918,8.43140062 C0.0617382355,8.28790136 -0.0065116135,8.14440211 0.000488371012,8.00090285 C-0.00677954096,7.85663823 0.061453622,7.71280526 0.205287025,7.56897228 L1.78523418,5.98902983 C2.03151969,5.74274506 2.27780519,5.71811659 2.52409069,5.9151444 Z M14.2146823,5.98890376 L15.7615936,7.53410684 C15.7684739,7.54052974 15.7751254,7.54718129 15.7815483,7.55406148 L15.7946294,7.5688462 C15.9371279,7.7113443 16.0054229,7.8538424 15.9995145,7.9963405 C16.0077749,8.14158594 15.9395966,8.28642007 15.7947621,8.4312542 L14.2148149,10.0111967 C13.9685294,10.2574814 13.7222439,10.2821099 13.4759584,10.0850821 L13.3938633,10.0111967 C13.1202127,9.73754693 13.1202127,9.46389718 13.3938633,9.19024744 L14.024,8.559 L12.1047934,8.55978552 C11.7564931,8.55978552 11.564928,8.40305085 11.5300979,8.08958152 L11.5242929,7.97928675 C11.5242929,7.59228757 11.7177931,7.39878798 12.1047934,7.39878798 L13.982,7.398 L13.3937306,6.80985299 C13.1474451,6.56356822 13.1228165,6.31728345 13.3198449,6.07099868 L13.3937306,5.98890376 C13.6673811,5.71525401 13.9410317,5.71525401 14.2146823,5.98890376 Z" id=""></path>
                        <path d="M5.97879235,8.01248404 C5.97879235,8.7270152 6.3599913,9.38726925 6.97879235,9.74453484 C7.59759928,10.1018004 8.35999724,10.1018004 8.97879235,9.74453484 C9.59760523,9.38726925 9.97880418,8.7270152 9.97880418,8.01248404 C9.97880418,6.90791453 9.08337103,6.01248404 7.97879235,6.01248404 C6.8742255,6.01248404 5.97879235,6.90791453 5.97879235,8.01248404 L5.97879235,8.01248404 Z" id="路径"></path>
                    </g>
                </g>
            </g>
        </g>
    </g>
</svg>