<?xml version="1.0" encoding="UTF-8"?>
<svg width="28px" height="28px" viewBox="0 0 28 28" version="1.1" xmlns="http://www.w3.org/2000/svg" xmlns:xlink="http://www.w3.org/1999/xlink">
    <title></title>
    <g id="" stroke="none" stroke-width="1" fill="none" fill-rule="evenodd">
        <g id="" transform="translate(-1129.000000, -537.000000)">
            <g id="" transform="translate(960.000000, 210.000000)">
                <g id="" transform="translate(169.000000, 327.000000)">
                    <rect id="" x="0" y="0" width="28" height="28"></rect>
                    <g id="" transform="translate(6.000000, 5.000000)" fill="#A3A3A3" fill-rule="nonzero">
                        <path d="M8.05147807,0 C12.4994006,0 16.1052632,3.13337216 16.1052632,6.99941759 C16.1052632,7.59298357 16.0202915,8.16930613 15.8603423,8.71968836 C15.4847156,8.47499955 15.0701233,8.28638521 14.6278753,8.16359154 C14.7191037,7.78866929 14.7669004,7.40006549 14.7669004,7.00192862 C14.7669004,3.84698861 11.7634496,1.28883894 8.05582477,1.28883894 C4.35039704,1.28883894 1.34584773,3.84587928 1.34584773,7.00192862 C1.34584773,8.85705517 2.3880584,10.5033249 3.99677565,11.5472637 L4.20978193,11.6799814 L4.18012094,13.8875217 L6.43545539,12.5419323 C6.96841579,12.6546587 7.51130394,12.7126393 8.05582477,12.7149881 C8.36022576,12.7149881 8.65988018,12.6977522 8.95351557,12.6643641 C8.97431797,13.1054195 9.06082499,13.5301986 9.20296604,13.928836 C8.82791928,13.9757902 8.44353173,14 8.05263158,14 C7.66678353,14 7.28742395,13.9731363 6.91601275,13.9262886 L6.54730509,13.8730344 L3.01988103,16 L3.01988103,12.4577752 C1.18003755,11.1764706 0,9.20908561 0,6.99941759 C0,3.13337216 3.60470902,0 8.05147807,0 Z M15.9516215,9.93015873 C16.6228833,10.5969652 17,11.5013896 17,12.4444444 C17,13.3874993 16.6228833,14.2919237 15.9516215,14.9587302 C14.5539179,16.3471567 12.2879201,16.3470802 10.8903116,14.9585591 C9.49270314,13.5700381 9.49270314,11.3188508 10.8903116,9.93032976 C12.2879201,8.54180873 14.5539179,8.54173215 15.9516215,9.93015873 Z M11.1941779,10.7403175 C10.3325519,11.8524204 10.4342618,13.4267676 11.4319222,14.4203175 C12.4320086,15.4114573 14.0167133,15.5125023 15.1361327,14.6565079 L11.1941779,10.7403175 Z M11.7054561,10.232381 L15.6474109,14.1485714 C16.5090369,13.0364684 16.407327,11.4621213 15.4096666,10.4685714 C14.4095802,9.47743164 12.8248755,9.37638658 11.7054561,10.232381 Z M8.87508199,7.91729761 C9.24651121,7.91729761 9.546423,8.17821782 9.546423,8.49970879 C9.546423,8.79091439 9.29856201,9.03398682 8.97443611,9.07577515 L8.87508199,9.08211998 L4.84934295,9.08211998 C4.47791374,9.08211998 4.17800195,8.90390215 4.17800195,8.583576 C4.19470836,8.25222124 4.43734301,7.98280046 4.75270555,7.92735872 L4.84934295,7.91729761 L8.87508199,7.91729761 Z M11.3389727,5.09726267 C11.7080949,5.09726267 12.0103137,5.35818288 12.0091635,5.67967385 C12.0091635,5.97193837 11.7593932,6.21414441 11.4366534,6.25576646 L11.3378192,6.26208503 L4.76513695,6.26208503 C4.39370773,6.26208503 4.09379594,6.00116482 4.09379594,5.67967385 C4.09379594,5.38740933 4.34165693,5.14520329 4.66578283,5.10358124 L4.76513695,5.09726267 L11.3389727,5.09726267 Z" id=""></path>
                    </g>
                </g>
            </g>
        </g>
    </g>
</svg>