<?xml version="1.0" encoding="UTF-8"?>
<svg width="12px" height="12px" viewBox="0 0 12 12" version="1.1" xmlns="http://www.w3.org/2000/svg" xmlns:xlink="http://www.w3.org/1999/xlink">
    <title>nearby</title>
    <g stroke="none" stroke-width="1" fill="none" fill-rule="evenodd">
        <g  transform="translate(-974.000000, -572.000000)">
            <g  transform="translate(941.000000, 179.000000)">
                <g transform="translate(15.000000, 377.000000)">
                    <g  transform="translate(0.000000, 10.000000)">
                        <g id="nearby" transform="translate(16.000000, 4.000000)">
                            <g transform="translate(2.000000, 2.000000)">
                                <rect  x="0" y="0" width="12" height="12"></rect>
                                <path d="M6,10 C3.80951503,10 2,9.34374789 2,8.593747 C2,8.03125434 2.76190735,7.56249978 3.90476294,7.28125345 C4.19048497,7.18750467 4.28571119,7.65624855 4,7.65624855 C3.23809265,7.84374611 2.66667028,8.12499243 2.66667028,8.49999822 C2.66667028,9.06249088 4.19048497,9.53124544 6,9.53124544 C7.80952588,9.53124544 9.33332972,9.06250156 9.33332972,8.49999822 C9.33332972,8.12500312 8.76190735,7.84374611 8,7.65624855 C7.71427796,7.65624855 7.80952588,7.18750467 8.09523706,7.28125345 C9.23809265,7.56251046 10,8.03125434 10,8.593747 C10,9.34374789 8.19047412,10 6,10 Z M5.80951503,8.40623876 C5.80951503,8.40623876 5.90475209,8.49998754 6,8.49998754 C6,8.49998754 6,8.49998754 6,8.49998754 C6,8.49998754 6,8.49998754 6,8.49998754 C6,8.49998754 6.19048497,8.40623876 6.19048497,8.40623876 L8.38096995,5.96874922 C9.42858848,4.937502 9.14287729,3.4375109 9.04764023,3.34375145 L9.04764023,3.34375145 C8.66669199,2.0312579 7.80954758,1.46875456 7.14287729,1.18749755 C6.85715526,1.09374878 6.47620701,1 6.28573289,1 C6.28573289,1 6.19049583,1 6.19049583,1 C6.19049583,1 6.09525876,1 6.00001085,1 C5.90477379,1 5.80953673,1 5.80953673,1 C5.80953673,1 5.80953673,1 5.71429967,1 C5.52382554,1 5.23811436,1.09374878 4.85715526,1.18749755 C4.19048497,1.46875456 3.33334057,2.03124722 2.95239232,3.34375145 L2.95239232,3.34375145 C2.95239232,3.43750022 2.57144407,4.937502 3.6190626,5.96874922 L5.80954758,8.40623876 L5.80951503,8.40623876 Z M6,5.87500045 C5.04761853,5.87500045 4.19047412,5.03125078 4.19047412,4.09375234 C4.19047412,3.06250512 5.04761853,2.31250423 6,2.31250423 C6.95238147,2.31250423 7.80952588,3.06250512 7.80952588,4.09375234 C7.80952588,5.03125078 6.95238147,5.87500045 6,5.87500045 Z M6,3.06250512 C6.57142237,3.06250512 7.04761853,3.531249 7.04761853,4.09375234 C7.04761853,4.65624499 6.57143322,5.12499955 6,5.12499955 C5.42857763,5.12499955 4.95238147,4.65625567 4.95238147,4.09375234 C4.95238147,3.53125968 5.42856678,3.06250512 6,3.06250512 Z"  fill="#FFFFFF" fill-rule="nonzero"></path>
                            </g>
                        </g>
                    </g>
                </g>
            </g>
        </g>
    </g>
</svg>