<?xml version="1.0" encoding="UTF-8"?>
<svg width="18px" height="18px" viewBox="0 0 18 18" version="1.1" xmlns="http://www.w3.org/2000/svg" xmlns:xlink="http://www.w3.org/1999/xlink">
    <g  stroke="none" stroke-width="1" fill="none" fill-rule="evenodd">
        <g  transform="translate(-141.000000, -337.000000)">
            <g transform="translate(121.000000, 248.000000)">
                <g transform="translate(17.000000, 86.000000)">
                    <g  transform="translate(3.000000, 3.000000)">
                        <rect  x="0" y="0" width="18" height="18"></rect>
                        <g  transform="translate(3.000000, 3.269697)" fill="#EF3030" fill-rule="nonzero">
                            <path d="M1.78654767,0.204414393 L2.26291286,0.743613774 C2.33666227,0.738842038 2.41440965,0.735432083 2.49683153,0.733251692 L2.70672727,0.730303072 L9.52927273,0.730303072 C10.2381891,0.735314924 10.6219897,0.811782176 11.0222358,1.0277591 C11.4017009,1.23263495 11.7031729,1.53647238 11.9052704,1.91813119 C12.0923973,2.27127362 12.173634,2.61154355 12.1944083,3.16764691 L12.1994533,3.38674955 L12.2,8.29325275 C12.2,8.83721885 12.1081776,9.25964101 11.9053957,9.64223733 C11.705778,10.0214069 11.3980803,10.3316687 11.0222317,10.5328489 L10.955,10.565 L11.0356076,10.6560811 C11.2440467,10.8551109 11.3066732,11.1541762 11.194394,11.4143471 C11.0821148,11.674518 10.8169385,11.8447968 10.5220518,11.8460811 C10.3313025,11.8460811 10.1478898,11.7760811 10.0011595,11.6430811 L9.14705864,10.6792169 C9.09823789,10.6380975 9.05552505,10.5898366 9.02051836,10.5360065 L1.681,2.24 C1.57625578,2.31840205 1.4948549,2.41401859 1.43306105,2.5304767 C1.36313524,2.66225233 1.32455147,2.79390911 1.30563926,3.01430491 L1.29655915,3.15790194 L1.29036364,3.46590296 L1.29036364,8.29325275 C1.29036364,8.62701843 1.33405114,8.84397826 1.43306225,9.03013128 C1.51545285,9.1854065 1.63270159,9.30363231 1.78663916,9.38668019 C1.93526755,9.46701233 2.10387287,9.51106363 2.33654084,9.52529244 L2.48418182,9.5303027 L2.6278612,9.53031266 C2.98452606,9.52527774 3.27737226,9.81241044 3.282354,10.1712144 C3.28688246,10.4973716 3.05199247,10.7710391 2.74022085,10.821981 L2.64454545,10.8304115 L2.51636364,10.8304115 C1.97659815,10.8304115 1.55728467,10.7376584 1.17749803,10.5329969 C0.801548762,10.3315565 0.49405942,10.0213038 0.294768726,9.64254824 C0.125421985,9.32360378 0.0335418813,8.97576811 0.00755557896,8.55154803 L0,8.33285275 L0,3.49560296 C0,2.73275371 0.074343441,2.33371654 0.294613552,1.91835091 C0.426618655,1.66773004 0.605847838,1.44722712 0.820760163,1.26845078 L0.752099644,1.19141439 C0.466444708,0.918861868 0.466444708,0.476966917 0.752099644,0.204414393 C1.03775458,-0.068138131 1.50089274,-0.068138131 1.78654767,0.204414393 Z M6.52545455,8.49345274 L6.52490909,8.49345274 C6.55109091,8.51545274 6.57454545,8.53910274 6.59636364,8.56495274 L8.60036364,10.9222526 C8.73911424,11.0853864 8.77092247,11.3150659 8.68180014,11.5102858 C8.5926778,11.7055057 8.39895252,11.8305009 8.18581818,11.8303028 L4.01309091,11.8303028 C3.80017108,11.8303028 3.60670595,11.7054033 3.51762883,11.5104006 C3.42855172,11.3153979 3.46014756,11.0859561 3.59854545,10.9228026 L5.60254545,8.56495274 C5.83782601,8.28824489 6.25101425,8.2562342 6.52545455,8.49345274 Z M9.48509091,2.03030302 L3.402,2.03 L10.0209078,9.50956348 C10.1754838,9.48755599 10.299312,9.44747088 10.4117926,9.38664342 C10.565662,9.30363231 10.6829108,9.1854065 10.7653373,9.03006357 C10.8451297,8.87996308 10.8888895,8.70966646 10.9030235,8.47475718 L10.908,8.32570275 L10.908,3.49560296 L10.9026372,3.174957 C10.8895576,2.85165052 10.8506153,2.69064322 10.7649958,2.52989398 C10.6857274,2.3781063 10.5627812,2.25413565 10.4117903,2.17396107 C10.2328432,2.07741484 10.0541411,2.04021948 9.64835098,2.03206069 L9.48509091,2.03030302 Z" ></path>
                        </g>
                    </g>
                </g>
            </g>
        </g>
    </g>
</svg>