<?xml version="1.0" encoding="UTF-8"?>
<svg width="18px" height="18px" viewBox="0 0 18 18" version="1.1" xmlns="http://www.w3.org/2000/svg" xmlns:xlink="http://www.w3.org/1999/xlink">
    <g stroke="none" stroke-width="1" fill="none" fill-rule="evenodd">
        <g transform="translate(-1156.000000, -133.000000)">
            <g transform="translate(1100.000000, 40.000000)">
                <g transform="translate(0.000000, 84.000000)">
                    <g transform="translate(53.000000, 6.000000)">
                        <g transform="translate(3.000000, 3.000000)">
                            <rect x="0" y="0" width="18" height="18"></rect>
                            <g transform="translate(3.000000, 4.000000)" fill="#FFFFFF" fill-rule="nonzero">
                                <path d="M6.52545455,7.76314967 L6.52490909,7.76314967 C6.55109091,7.78514967 6.57454545,7.80879967 6.59636364,7.83464967 L8.60036364,10.1919496 C8.73911424,10.3550833 8.77092247,10.5847628 8.68180014,10.7799827 C8.5926778,10.9752026 8.39895252,11.1001978 8.18581818,11.0999998 L4.01309091,11.0999998 C3.80017108,11.0999998 3.60670595,10.9751002 3.51762883,10.7800975 C3.42855172,10.5850948 3.46014756,10.355653 3.59854545,10.1924996 L5.60254545,7.83464967 C5.83782601,7.55794182 6.25101425,7.52593113 6.52545455,7.76314967 Z M9.52927273,0 C10.2381891,0.00501185206 10.6219897,0.0814791042 11.0222358,0.297456026 C11.4017009,0.502331876 11.7031729,0.80616931 11.9052704,1.18782812 C12.1157882,1.58511335 12.1922886,1.96610683 12.1994533,2.65644648 L12.1994533,2.65644648 L12.2,7.56294968 C12.2,8.10691578 12.1081776,8.52933794 11.9053957,8.91193426 C11.705778,9.29110385 11.3980803,9.60136567 11.0222317,9.80254579 C10.6529602,10.0018956 10.2445954,10.0948846 9.72236364,10.1001084 L9.72236364,10.1001084 L9.56993872,10.1001084 C9.21327485,10.1050146 8.92044576,9.81787858 8.9154642,9.4590879 C8.91048271,9.10030199 9.19521461,8.80504426 9.55327273,8.79999962 L9.55327273,8.79999962 L9.83807027,8.79628056 C10.083414,8.78379318 10.2581847,8.73940868 10.4117926,8.65634035 C10.565662,8.57332923 10.6829108,8.45510343 10.7653373,8.2997605 C10.8610882,8.11963991 10.9049521,7.9104369 10.908,7.59539968 L10.908,7.59539968 L10.908,2.76529989 L10.9026372,2.44465393 C10.8895576,2.12134745 10.8506153,1.96034015 10.7649958,1.79959091 C10.6857274,1.64780323 10.5627812,1.52383258 10.4117903,1.443658 C10.2104748,1.33504349 10.0094694,1.30154493 9.48509091,1.29999995 L9.48509091,1.29999995 L2.65739455,1.29999635 L2.37536115,1.3076362 C2.08893117,1.32280152 1.93852928,1.36169235 1.78657107,1.44365923 C1.63270159,1.52667034 1.51545285,1.64489615 1.43306105,1.80017363 C1.34915008,1.95830438 1.31037164,2.11626399 1.29655915,2.42759887 L1.29655915,2.42759887 L1.29036364,2.73559989 L1.29036364,7.56294968 C1.29036364,7.89671536 1.33405114,8.11367519 1.43306225,8.29982821 C1.51545285,8.45510343 1.63270159,8.57332923 1.78663916,8.65637711 C1.96499322,8.75277568 2.17211408,8.79692985 2.48418182,8.79999962 L2.48418182,8.79999962 L2.6278612,8.80000959 C2.98452606,8.79497467 3.27737226,9.08210737 3.282354,9.4409113 C3.28733531,9.79968425 3.00262029,10.0949446 2.64454545,10.1001084 L2.64454545,10.1001084 L2.51636364,10.1001084 C1.97659815,10.1001084 1.55728467,10.0073553 1.17749803,9.80269378 C0.801548762,9.60125343 0.49405942,9.29100075 0.294768726,8.91224517 C0.0971975284,8.5401433 0.00506703097,8.12871729 0,7.60254968 L0,7.60254968 L0,2.76529989 C0,2.00245064 0.074343441,1.60341347 0.294613552,1.18804784 C0.494170562,0.809174979 0.801651077,0.49913214 1.17718292,0.298025361 C1.58406986,0.0781304327 1.97399292,0.00222663815 2.70672727,0 L2.70672727,0 Z"></path>
                            </g>
                        </g>
                    </g>
                </g>
            </g>
        </g>
    </g>
</svg>