<?xml version="1.0" encoding="UTF-8"?>
<svg width="21px" height="21px" viewBox="0 0 21 21" version="1.1" xmlns="http://www.w3.org/2000/svg" xmlns:xlink="http://www.w3.org/1999/xlink">
    <g stroke="none" stroke-width="1" fill="none" fill-rule="evenodd">
        <g  transform="translate(-1213.000000, -665.000000)">
            <g  transform="translate(1014.000000, 658.000000)">
                <g transform="translate(25.000000, 0.000000)">
                    <g transform="translate(174.007245, 7.994582)">
                        <rect  x="0" y="0" width="20" height="20"></rect>
                        <path d="M7.6988504,15 C7.50005729,15 7.36752856,14.9373223 7.23499982,14.8119669 C6.96994233,14.5612561 7.0362067,14.18519 7.30126419,13.9344792 L11.5421839,10.2991731 C11.6747126,10.1738177 11.740977,10.0484623 11.740977,9.92310694 C11.740977,9.79775155 11.6747126,9.67239617 11.5421839,9.54704078 L7.23499982,6.09976771 C6.96994233,5.84905694 6.90367797,5.47299079 7.16873545,5.22228003 C7.43379293,4.97156926 7.83137915,4.90889157 8.09643662,5.15960234 L12.3373563,8.6068754 C12.7349425,8.92026386 13,9.42168541 13,9.92310694 C13,10.4245285 12.8012069,10.8632723 12.4036207,11.2393385 L8.16270099,14.8746446 C8.03017225,14.9373223 7.83137915,15 7.6988504,15 L7.6988504,15 Z"  fill="#FFFFFF" fill-rule="nonzero" transform="translate(10.000000, 10.000000) scale(-1, 1) rotate(-270.000000) translate(-10.000000, -10.000000) "></path>
                    </g>
                </g>
            </g>
        </g>
    </g>
</svg>