<?xml version="1.0" encoding="UTF-8"?>
<svg width="22px" height="22px" viewBox="0 0 22 22" version="1.1" xmlns="http://www.w3.org/2000/svg" xmlns:xlink="http://www.w3.org/1999/xlink">
    <g  stroke="none" stroke-width="1" fill="none" fill-rule="evenodd">
        <g  transform="translate(-1208.000000, -723.000000)">
            <g  transform="translate(1000.000000, 179.000000)">
                <g  transform="translate(203.000000, 539.000000)">
                    <g  transform="translate(5.600000, 5.600000)">
                        <rect  x="0" y="0" width="20.8" height="20.8"></rect>
                        <path d="M16.5477623,3.53436151 L1.98927556,9.10332471 C1.16884144,9.4171568 1.18939372,9.87324283 2.03110825,10.1208293 L5.54874978,11.1554953 L6.97898003,15.3741739 C7.16622592,15.9264794 7.65538443,16.0429461 8.07380238,15.6320464 L9.9189372,13.8201357 L13.5612212,16.4660086 C14.0344331,16.8097604 14.520952,16.6288526 14.6486892,16.0582849 L17.3065578,4.18604446 C17.4339309,3.61710087 17.094682,3.32515816 16.5477623,3.53436151 Z M14.3323044,6.21863555 L8.12238874,11.7033796 C8.01072567,11.8019992 7.90967551,11.9974337 7.89416575,12.1421238 L7.62001416,14.6971909 C7.58923126,14.9840989 7.48943718,14.9959368 7.39739798,14.720939 L6.19579123,11.1303938 C6.1487886,10.9899264 6.213176,10.8177527 6.33869228,10.7431339 L14.2140151,6.06057359 C14.71588,5.7621886 14.7693086,5.83265692 14.3323044,6.21863555 Z"  fill="#FFFFFF" fill-rule="nonzero"></path>
                    </g>
                </g>
            </g>
        </g>
    </g>
</svg>