<?xml version="1.0" encoding="UTF-8"?>
<svg width="18px" height="18px" viewBox="0 0 18 18" version="1.1" xmlns="http://www.w3.org/2000/svg" xmlns:xlink="http://www.w3.org/1999/xlink">
    <g  stroke="none" stroke-width="1" fill="none" fill-rule="evenodd">
        <g id="w3-5" transform="translate(-1181.000000, -221.000000)">
            <g  transform="translate(1000.000000, 179.000000)">
                <g  transform="translate(15.000000, 6.000000)">
                    <g  transform="translate(89.000000, 25.000000)">
                        <g  transform="translate(77.000000, 11.000000)">
                            <rect  x="0" y="0" width="17.7272727" height="17.7272727"></rect>
                            <g  transform="translate(1.909091, 2.500000)" fill="#FFFFFF" fill-rule="nonzero">
                                <path d="M13.6886506,5.07230881 L12.7638947,4.94299205 C12.558573,4.91389578 12.3920523,4.77488027 12.311217,4.58575452 C12.1285292,4.15415986 11.8957235,3.750045 11.6176501,3.38149226 C11.4931637,3.2166134 11.4559795,3.00162429 11.5335813,2.81088208 L11.8844066,1.94607629 C11.9927259,1.68097695 11.88764,1.37546612 11.6386672,1.23321769 L9.63880179,0.0774492079 C9.38982905,-0.0664156802 9.07457136,-0.00499022235 8.89835039,0.221314096 L8.32603643,0.953570212 C8.19831665,1.11844907 7.99137827,1.19442267 7.78443989,1.16855931 C7.55810103,1.13946304 7.32691206,1.12329845 7.09248968,1.12329845 C6.85806729,1.12329845 6.62687832,1.13946304 6.40053946,1.16855931 C6.19360108,1.19442267 5.9866627,1.11844907 5.85894292,0.953570212 L5.28662896,0.221314096 C5.11040799,-0.00499022235 4.7951503,-0.0664156802 4.54617756,0.0774492079 L2.54631211,1.23160123 C2.29733937,1.37546612 2.19387018,1.67936049 2.30057279,1.94445983 L2.65139801,2.80926562 C2.7289999,3.00162429 2.69181566,3.21499694 2.56732929,3.3798758 C2.28925584,3.74842854 2.05483346,4.1525434 1.87376237,4.58413806 C1.79292707,4.77488027 1.62640634,4.91389578 1.42108467,4.94137559 L0.496328774,5.07069235 C0.2117885,5.11110383 0,5.35357275 0,5.64130252 L0,7.95122303 C0,8.23733635 0.2117885,8.47980526 0.494712068,8.52021674 L1.41946796,8.6495335 C1.62478963,8.67862977 1.79131036,8.81764528 1.87214567,9.00677103 C2.05483346,9.43836569 2.28763914,9.84248055 2.56571259,10.2110333 C2.69019896,10.3759122 2.7273832,10.5909013 2.6497813,10.7816435 L2.29895608,11.6464493 C2.19063677,11.9115486 2.29572267,12.2170594 2.54469541,12.3593079 L4.54456086,13.5134599 C4.7935336,13.6573248 5.10879129,13.5958993 5.28501225,13.369595 L5.85732621,12.6373389 C5.985046,12.47246 6.19198438,12.3964864 6.39892276,12.4223498 C6.62526161,12.451446 6.85645059,12.4676106 7.09087297,12.4676106 C7.32529536,12.4676106 7.55648433,12.451446 7.78282318,12.4223498 C7.98976156,12.3964864 8.19669995,12.47246 8.32441973,12.6373389 L8.89673369,13.369595 C9.07295465,13.5958993 9.38821234,13.6573248 9.63718508,13.5134599 L11.6370505,12.3593079 C11.8860233,12.215443 11.9894925,11.9115486 11.8827899,11.6464493 L11.5319646,10.7816435 C11.4543627,10.5909013 11.491547,10.3759122 11.6160334,10.2110333 C11.8941068,9.84248055 12.1285292,9.43836569 12.3096003,9.00677103 C12.3904356,8.81602882 12.5569563,8.67701331 12.762278,8.6495335 L13.6870339,8.52021674 C13.9715741,8.47980526 14.1817825,8.23733635 14.1817825,7.95122303 L14.1817825,5.64130252 C14.1849794,5.35357275 13.9731909,5.11110383 13.6886506,5.07230881 Z M7.09248968,9.04071668 C5.8524761,9.04071668 4.8468849,8.03527892 4.8468849,6.79545455 C4.8468849,5.55563017 5.8524761,4.55019242 7.09248968,4.55019242 C8.33250326,4.55019242 9.33809445,5.55563017 9.33809445,6.79545455 C9.33809445,8.03527892 8.33250326,9.04071668 7.09248968,9.04071668 Z" ></path>
                            </g>
                        </g>
                    </g>
                </g>
            </g>
        </g>
    </g>
</svg>