<?xml version="1.0" encoding="UTF-8"?>
<svg width="28px" height="28px" viewBox="0 0 28 28" version="1.1" xmlns="http://www.w3.org/2000/svg" xmlns:xlink="http://www.w3.org/1999/xlink">
    <g  stroke="none" stroke-width="1" fill="none" fill-rule="evenodd">
        <g transform="translate(-1129.000000, -450.000000)">
            <g  transform="translate(960.000000, 210.000000)">
                <g  transform="translate(169.000000, 240.000000)">
                    <rect  x="0" y="0" width="28" height="28" rx="14"></rect>
                    <path d="M13.0968518,11.3734177 C13.4103632,11.3734177 13.6710255,11.6609403 13.6710255,12 C13.6710255,14.2468354 12.1840859,16.1925859 10.178509,16.6084991 L9.94919785,16.6482821 L9.94919785,18.7477396 C9.94919785,19.0551537 9.73421864,19.3209765 9.45922439,19.3670886 L9.37502419,19.3734177 C9.08838525,19.3734177 8.84832511,19.1356239 8.80622503,18.8381555 L8.79995479,18.7477396 L8.79995479,16.6482821 L8.76054194,16.6428572 C6.71913516,16.3173599 5.16770183,14.4294756 5.07543991,12.2088608 L5.07096118,12 C5.07096118,11.6564195 5.33072773,11.3734177 5.65319656,11.3734177 C5.96760366,11.3734177 6.22826596,11.6609403 6.22826594,12 C6.22826594,13.8951175 7.64175428,15.4358047 9.37502419,15.4358047 C11.1082941,15.4358047 12.5217824,13.8951175 12.5217824,12 C12.5217824,11.6609403 12.781549,11.3734177 13.0968518,11.3734177 Z M20.2711054,6 C20.6447271,6 20.945754,6.27209757 20.9931827,6.6352206 L20.9999582,6.73603372 L20.9999582,18.2639663 C21.003867,18.6335345 20.7333737,18.9474531 20.3708024,18.9941274 L20.2720733,19 L13.6049575,19 C13.288646,18.9993497 13.026228,18.7524053 13.0028802,18.4334245 C12.9795324,18.1144437 13.2031377,17.8311238 13.5159078,17.7833911 L13.6049575,17.7765397 L19.4771536,17.7765397 C19.7384953,17.7765397 19.955312,17.5837223 19.9959652,17.3312001 L20.0027407,17.2460473 L20.0027407,7.79603975 C20.0019516,7.53621342 19.8158207,7.31490606 19.5623316,7.27239873 L19.4771536,7.26456858 L13.6214123,7.26456858 C13.2782158,7.26456857 13,6.9832381 13,6.63619937 C13,6.31320585 13.2264961,6.05187472 13.5284909,6.00685137 L13.6214123,6 L20.2711054,6 Z M18.4332065,15 C18.7418094,14.9991932 18.9998968,15.2287138 18.9998969,15.5004076 C19.0027642,15.6302498 18.9457422,15.7555443 18.8419216,15.847527 C18.7568566,15.925049 18.6457223,15.9762497 18.5250526,15.9935118 L18.4332065,16 L15.5657719,16 C15.2544022,15.9969231 15.0029794,15.7745493 15,15.4995966 C15,15.2522335 15.2130829,15.0413666 15.4831104,15.0048704 L15.5657719,15 L18.4332065,15 Z M9.38162233,5.79880547 C10.6716453,5.79880547 11.7199987,6.85700454 11.7199987,8.15914278 L11.7199987,12.2684922 C11.7199987,13.5695011 10.6716453,14.6288691 9.38162233,14.6288691 C8.08554873,14.6325835 7.03100602,13.5767253 7.0242256,12.2684922 L7.0242256,8.15914278 C7.0242256,6.85700454 8.08152978,5.79880547 9.38162233,5.79880547 Z M18.4332064,12 C18.7418093,12 18.9998967,12.2287105 18.9998968,12.5012165 C19.0027568,12.6306617 18.9460928,12.7556055 18.84284,12.8475264 C18.7574534,12.9251082 18.646008,12.976304 18.5250525,12.9935118 L18.4332064,13 L15.5657719,13 C15.2546071,12.9964941 15.0034656,12.7743681 15,12.4995945 C15,12.2530414 15.2130829,12.0421736 15.4831104,12.0048662 L15.5657719,12 L18.4332064,12 Z M18.4332064,9 C18.7418093,9.00081103 18.9998967,9.22871047 18.9998968,9.50121654 C19.0027568,9.63066167 18.9460928,9.75560552 18.84284,9.84752636 C18.7574931,9.92515525 18.6460289,9.97635974 18.5250525,9.99351176 L18.4332064,10 L15.5657719,10 C15.2547556,9.99693114 15.0034754,9.77504272 15,9.50040551 C15,9.25304136 15.2130829,9.04217356 15.4831104,9.00567721 L15.5657719,9 L18.4332064,9 Z"  fill="#A3A3A3" fill-rule="nonzero"></path>
                </g>
            </g>
        </g>
    </g>
</svg>