<?xml version="1.0" encoding="UTF-8"?>
<svg width="28px" height="28px" viewBox="0 0 28 28" version="1.1" xmlns="http://www.w3.org/2000/svg" xmlns:xlink="http://www.w3.org/1999/xlink">
    <title>主办方</title>
    <g id="页面-3" stroke="none" stroke-width="1" fill="none" fill-rule="evenodd">
        <g id="w3-通讯录" transform="translate(-1129.000000, -618.000000)">
            <g id="编组-7" transform="translate(960.000000, 210.000000)">
                <g id="主办方" transform="translate(169.000000, 408.000000)">
                    <rect id="矩形备份" x="0" y="0" width="28" height="28"></rect>
                    <path d="M20.8282828,15.1714286 C21.5785166,15.9215858 22,16.9390633 22,18 C22,19.0609367 21.5785166,20.0784142 20.8282828,20.8285714 C19.2661435,22.3905513 16.7335578,22.3904652 15.1715248,20.828379 C13.6094917,19.2662929 13.6094917,16.7337071 15.1715248,15.171621 C16.7335578,13.6095348 19.2661435,13.6094487 20.8282828,15.1714286 Z M15.8786436,15.8787157 C14.7071188,17.0502804 14.7071188,18.9497196 15.8786436,20.1212843 C17.0501684,21.2928489 18.9496076,21.2929135 20.1212121,20.1214286 C20.6838875,19.5588106 21,18.7957025 21,18 C21,17.2042975 20.6838875,16.4411894 20.1212121,15.8785714 C18.9496076,14.7070865 17.0501684,14.7071511 15.8786436,15.8787157 Z M13.6291953,5.01993576 L13.7147798,5.05537712 L20.6913462,8.77782153 C20.9053382,8.85554511 21.0325069,9.07598444 20.9927601,9.30030442 C20.9579817,9.49658439 20.8042207,9.64610229 20.6138167,9.67998196 L20.5302116,9.68722112 L19.5840142,9.68722112 L19.5847876,13.2563706 C19.2840422,13.1559409 18.9705736,13.0833114 18.6474319,13.0415323 L18.6471851,9.68722112 L16.7735268,9.68722112 L16.7734428,13.151549 C16.4471782,13.2338303 16.1336682,13.3481795 15.8364608,13.4910485 L15.8366977,9.68722112 L13.9630395,9.68722112 L13.9630748,15.049297 C13.3575285,15.8763522 13,16.8964235 13,18 C13,18.7113108 13.1485335,19.3879297 13.4162763,20.0005324 L6.46840649,20 C6.3241279,20 6.18790121,19.9334544 6.09913912,19.8196263 C6.02812946,19.7285638 5.9938364,19.6153675 6.00091014,19.5020218 L6.01404436,19.417328 L6.48245892,17.5422773 C6.52814185,17.3597811 6.67725452,17.224973 6.85775301,17.1941187 L6.93682105,17.1874239 L7.40523561,17.1874239 L7.40523561,9.68722112 L6.46840649,9.68722112 C6.25381389,9.68698165 6.06682819,9.54084304 6.01459958,9.33254846 C5.96983219,9.15401026 6.03388483,8.96894924 6.17215508,8.85573538 L6.24731482,8.80547853 L13.2735332,5.05537712 C13.3837967,4.99630819 13.5118256,4.98449441 13.6291953,5.01993576 Z M17.9614903,19.5604973 L17.9298678,19.5593585 C17.8561728,19.5543466 17.7824558,19.5328599 17.7141724,19.4934364 C17.6972957,19.4836927 17.6812019,19.4731136 17.6659132,19.4617816 C17.6587153,19.4565617 17.6509364,19.4504453 17.6433259,19.4440819 C17.5946221,19.4033287 17.5553023,19.3548163 17.5259981,19.301415 L16.5311597,17.5783729 C16.3930885,17.3392266 16.4750261,17.0334314 16.7141724,16.8953602 C16.9533187,16.757289 17.2591139,16.8392266 17.3971851,17.0783729 L17.964,18.06 L18.5311597,17.0783729 C18.6538896,16.8657984 18.9091423,16.7774382 19.13231,16.8573988 L19.2141724,16.8953602 C19.4533187,17.0334314 19.5352563,17.3392266 19.3971851,17.5783729 L19.3971851,17.5783729 L18.3971851,19.3104237 C18.3757561,19.3475399 18.3502869,19.3808693 18.3216538,19.410177 C18.3106279,19.4214896 18.2982376,19.4329723 18.2851821,19.4438757 C18.2780117,19.4499397 18.2708975,19.4555616 18.2636518,19.4609736 C18.248277,19.4723664 18.2316443,19.4833491 18.2141724,19.4934364 C18.145889,19.5328599 18.0721719,19.5543466 17.998477,19.5593585 C17.9883801,19.5600131 17.9776273,19.5604294 17.9668545,19.5604973 L17.9614903,19.5604973 Z M13.0262103,9.68722112 L11.1525521,9.68722112 L11.1525521,17.1874239 L13.0262103,17.1874239 L13.0262103,9.68722112 Z M10.215723,9.68722112 L8.34206473,9.68722112 L8.34206473,17.1874239 L10.215723,17.1874239 L10.215723,9.68722112 Z" id="形状结合" fill="#A3A3A3" fill-rule="nonzero"></path>
                </g>
            </g>
        </g>
    </g>
</svg>