<?xml version="1.0" encoding="UTF-8"?>
<svg width="27px" height="27px" viewBox="0 0 27 27" version="1.1" xmlns="http://www.w3.org/2000/svg" xmlns:xlink="http://www.w3.org/1999/xlink">
    <title>团队</title>
    <g id="页面-3" stroke="none" stroke-width="1" fill="none" fill-rule="evenodd">
        <g id="团队">
            <rect id="矩形" x="0" y="0" width="27" height="27"></rect>
            <g id="编组" transform="translate(2.700000, 1.599713)" fill="#FFFFFF" fill-rule="nonzero">
                <path d="M18.5214807,7.74397241 L18.5214807,15.7394036 L11.2608823,19.7416755 L4.00028385,15.7394036 L4.00028385,7.74397241 L11.2608823,3.74167549 L18.5214807,7.74397241 Z M11.2608823,6.36192285 L6.3561648,9.06192285 L6.3561648,14.4619228 L11.2608823,17.1619228 L16.1655997,14.4619228 L16.1655997,9.06192285 L11.2608823,6.36192285 Z" id="形状"></path>
                <path d="M11.2679604,8.42766393 L14.4179604,10.1445353 L14.4179604,13.5679354 L11.2679604,15.2848068 L8.11796042,13.5679354 L8.11796042,10.1341927 L11.2679604,8.42766393 Z M10.6585728,6.18418857 L10.6585728,3.49212865 C9.73594644,3.15589662 9.25097615,2.13519222 9.58217537,1.19854583 C9.91337459,0.261899448 10.9188008,-0.23044032 11.8414272,0.105791717 C12.7640536,0.442023753 13.2490238,1.46272815 12.9178246,2.39937454 C12.7403965,2.91573088 12.338226,3.31200435 11.8414272,3.49212865 L11.8414272,6.17218028 C11.4510852,6.13615542 11.0489148,6.13615542 10.6585728,6.18418857 Z M15.5319327,8.79979151 L18.9503818,6.79440758 C18.8439249,5.80972805 19.541809,4.92111481 20.5235781,4.80103194 C21.4935186,4.69295735 22.3688309,5.40144629 22.4871163,6.39813411 C22.6054017,7.39482193 21.8956891,8.27142688 20.91392,8.39150975 C20.3816356,8.45155119 19.8493511,8.2594186 19.4708377,7.8871617 L16.5797493,9.63016565 C16.4141497,9.25790875 16.2130645,8.90966842 15.9764936,8.58544468 L15.5319327,8.79979151 Z M19.4708377,16.1248466 C20.1687218,15.4283659 21.2924334,15.4283659 21.9784889,16.1368549 C22.6645445,16.8453438 22.6645445,17.9861311 21.9666604,18.6826117 C21.2687763,19.3790924 20.1450647,19.3790924 19.4590092,18.6706034 C19.0804958,18.2863382 18.9030676,17.7459653 18.9622103,17.2055924 L15.5437613,15.2002085 C15.7685036,14.887993 16.4141497,14.6935881 16.5797493,14.3213312 L19.4708377,16.1248466 Z M11.8414272,17.3737084 L11.8414272,20.5078713 C12.7640536,20.8441034 13.2490238,21.8648078 12.9178246,22.8014542 C12.5866254,23.7381006 11.5811992,24.2304403 10.6585728,23.8942083 C9.73594644,23.5579762 9.25097615,22.5372719 9.58217537,21.6006255 C9.75960352,21.0842691 10.161774,20.6879957 10.6585728,20.5078713 L10.6585728,17.3737084 C11.0489148,17.4217416 11.4510852,17.4217416 11.8414272,17.3737084 Z M3.5496182,17.2176007 C3.65607509,18.2022802 2.95819102,19.0908935 1.97642192,19.2109763 C1.00648135,19.3190509 0.131169135,18.610562 0.0128836999,17.6138742 C-0.105401735,16.6171864 0.604310874,15.7405814 1.58607998,15.6204985 C2.11836444,15.5604571 2.65064889,15.7525897 3.02916229,16.1248466 L5.81547016,14.5092613 C5.96924123,14.8815182 6.73149639,14.887993 6.96806726,15.2122168 L3.5496182,17.2176007 Z M5.96799316,9.42857143 L3.04099083,7.8871617 C2.34310676,8.58364235 1.21939513,8.58364235 0.533339613,7.87515341 C-0.152715909,7.16666448 -0.152715909,6.01386893 0.545168156,5.31738828 C1.24305222,4.62090763 2.36676385,4.62090763 3.05281937,5.32939657 C3.43133276,5.71366175 3.60876092,6.25403467 3.5496182,6.79440758 L6.55942034,8.38385046 C6.32284947,8.70807421 6.12176423,9.05631453 5.96799316,9.42857143 Z" id="形状"></path>
            </g>
        </g>
    </g>
</svg>