<?xml version="1.0" encoding="UTF-8"?>
<svg width="18px" height="18px" viewBox="0 0 18 18" version="1.1" xmlns="http://www.w3.org/2000/svg" xmlns:xlink="http://www.w3.org/1999/xlink">
    <g id="" stroke="none" stroke-width="1" fill="none" fill-rule="evenodd">
        <g id="" transform="translate(-1042.000000, -50.000000)">
            <g id="" transform="translate(910.000000, 40.000000)">
                <g id="" transform="translate(128.000000, 6.000000)">
                    <g id="" transform="translate(4.000000, 4.000000)">
                        <rect id="" x="0" y="0" width="18" height="18"></rect>
                        <path d="M14.7778424,7.90956369 C14.507598,7.45502155 14.0488203,7.19904559 13.5724475,7.17950712 C13.5477535,7.17552678 13.5226833,7.17288292 13.496973,7.17288292 L10.7070983,7.16971606 C10.8962999,6.60529354 10.9996703,5.99880153 10.9996703,5.36688772 C10.9996703,4.95705892 10.9550565,4.55827045 10.8731926,4.17413947 L10.8658289,4.1751273 C10.7169398,3.50223351 10.1404121,3 9.45029677,3 C8.64713645,3 7.99617825,3.67940179 7.99617825,4.51742122 C7.99617825,4.56377609 7.99897617,4.60934652 8.00277633,4.65472811 C7.95962411,6.26552731 6.75029006,7.57127917 5.22407946,7.68527059 L5.22407946,7.69507617 L3.56534981,7.6991146 C3.54529096,7.69654338 3.52510686,7.69481468 3.50449123,7.69481468 C3.22835878,7.69481468 3.00449619,7.92836131 3.00449619,8.21645591 L3,14.4784169 C3,14.7664534 3.22372339,15 3.49985586,15 C3.52695823,15 3.55336461,14.9971528 3.57929771,14.9928383 L5.424612,14.9936373 C5.44904173,14.9974723 5.47368025,15 5.49898695,15 C5.52432147,15 5.54887647,14.9974723 5.57312525,14.9937099 L12.5106384,14.996746 L12.5106384,14.9998692 C12.7824,15.0003922 13.0575163,14.9240977 13.3038876,14.7607153 C13.5377589,14.6054533 13.7136946,14.3923313 13.8293147,14.1512453 C13.8610384,14.1031617 13.886053,14.0490496 13.9012257,13.9894463 L14.9812702,9.01441054 C14.9962481,8.9554174 15.0003129,8.8961482 14.9958722,8.83847702 C15.0183115,8.5234498 14.9497691,8.19866062 14.7778424,7.90956369 L14.7778424,7.90956369 Z M6.00191914,14.01834 L5.00227704,14.0180931 L5.00603546,8.80661984 C5.00603546,8.80661984 5.61676468,8.80259594 6.00667981,8.67647465 L6.00191914,14.01834 L6.00191914,14.01834 Z" fill="#FFFFFF" fill-rule="nonzero"></path>
                    </g>
                </g>
            </g>
        </g>
    </g>
</svg>